<?xml version="1.0" encoding="UTF-8" standalone="no"?>
<svg
   data-name="Layer 1"
   id="Layer_1"
   viewBox="0 0 508.33 508.36"
   version="1.1"
   sodipodi:docname="matrix_icon.svg"
   xml:space="preserve"
   inkscape:export-filename="matrix.svg"
   inkscape:export-xdpi="96"
   inkscape:export-ydpi="96"
   inkscape:version="1.2 (dc2aedaf03, 2022-05-15)"
   xmlns:inkscape="http://www.inkscape.org/namespaces/inkscape"
   xmlns:sodipodi="http://sodipodi.sourceforge.net/DTD/sodipodi-0.dtd"
   xmlns="http://www.w3.org/2000/svg"
   xmlns:svg="http://www.w3.org/2000/svg"><sodipodi:namedview
     id="namedview300"
     pagecolor="#ffffff"
     bordercolor="#000000"
     borderopacity="0.25"
     inkscape:showpageshadow="true"
     inkscape:pageopacity="0"
     inkscape:pagecheckerboard="true"
     inkscape:deskcolor="#d1d1d1"
     showgrid="false"
     inkscape:zoom="1.1238931"
     inkscape:cx="114.33472"
     inkscape:cy="276.71672"
     inkscape:window-width="1920"
     inkscape:window-height="1014"
     inkscape:window-x="0"
     inkscape:window-y="0"
     inkscape:window-maximized="1"
     inkscape:current-layer="layer1"
     borderlayer="true"
     showborder="true" /><defs
     id="defs287"><style
       id="style285">.cls-1{fill:#262626;fill-rule:evenodd;}.cls-2{fill:#fff;}</style></defs><title
     id="title289" /><g
     inkscape:groupmode="layer"
     id="layer1"
     inkscape:label="Background"><path
       class="cls-1"
       d="M485,29.72c11.45,15.13,16.61,40.21,19.15,70.7,3.36,45.5,4.71,100.1,6,156.52-1.67,57.47-2.35,115.43-6,156.52-2.88,31.54-9,52.66-19.22,65.47-13,12.79-37.94,23.59-73.5,26.15-43.25,3.69-96.61,3.65-155.48,5.1-65.44-1.12-109.82-.64-156.38-5.08-36.32-2.52-60.08-13.19-74.7-26.07-10.83-14.54-14-30-17-66.24-3.75-41.85-4.58-98.56-6-155.54C4,200.57,4.13,143.44,7.9,100.74,10.43,67.05,14.42,44.4,24.65,30,39,17.77,63.48,11.69,100,8.69c50-5.85,102.06-7,155.88-6.87,55.39.09,108.56,1.67,156,6.34,32,2.56,58.48,8.07,73.07,21.56Z"
       id="path291"
       style="fill:#ffffff"
       inkscape:label="Logo_body"
       transform="translate(-1.83,-1.82)" /></g><g
     inkscape:groupmode="layer"
     id="layer2"
     inkscape:label="Logo"><g
       transform="matrix(11.294082,0,0,9.6818289,95.844552,99.599912)"
       fill="#040404"
       id="g790"
       inkscape:label="matrix_logo"><path
         d="M 27.1,31.2 V 0.7 h -2.19 v -0.732 h 3.04 v 32 h -3.04 v -0.732 z"
         id="path784" /><path
         d="m 8.23,10.4 v 1.54 h 0.044 c 0.385,-0.564 0.893,-1.03 1.49,-1.37 0.58,-0.323 1.25,-0.485 1.99,-0.485 0.72,0 1.38,0.14 1.97,0.42 0.595,0.279 1.05,0.771 1.36,1.48 0.338,-0.5 0.796,-0.941 1.38,-1.32 0.58,-0.383 1.27,-0.574 2.06,-0.574 0.602,0 1.16,0.074 1.67,0.22 0.514,0.148 0.954,0.383 1.32,0.707 0.366,0.323 0.653,0.746 0.859,1.27 0.205,0.522 0.308,1.15 0.308,1.89 v 7.63 h -3.13 v -6.46 c 0,-0.383 -0.015,-0.743 -0.044,-1.08 -0.0209,-0.307 -0.103,-0.607 -0.242,-0.882 -0.133,-0.251 -0.336,-0.458 -0.584,-0.596 -0.257,-0.146 -0.606,-0.22 -1.05,-0.22 -0.44,0 -0.796,0.085 -1.07,0.253 -0.272,0.17 -0.485,0.39 -0.639,0.662 -0.159,0.287 -0.264,0.602 -0.308,0.927 -0.052,0.347 -0.078,0.697 -0.078,1.05 v 6.35 h -3.13 v -6.4 c 0,-0.338 -0.007,-0.673 -0.021,-1 -0.0114,-0.314 -0.0749,-0.623 -0.188,-0.916 -0.108,-0.277 -0.3,-0.512 -0.55,-0.673 -0.258,-0.168 -0.636,-0.253 -1.14,-0.253 -0.198,0.0083 -0.394,0.042 -0.584,0.1 -0.258,0.0745 -0.498,0.202 -0.705,0.374 -0.228,0.184 -0.422,0.449 -0.584,0.794 -0.161,0.346 -0.242,0.798 -0.242,1.36 v 6.62 h -3.13 v -11.4 z"
         id="path786" /><path
         d="m 0.936,0.732 v 30.5 h 2.19 v 0.732 h -3.04 v -32 h 3.03 v 0.732 z"
         id="path788" /></g></g></svg>
